<svg xmlns="http://www.w3.org/2000/svg" viewBox="0 0 989.76 905.21"><defs><style>.cls-1{fill:#f0fafc;}.cls-1,.cls-2,.cls-3,.cls-4,.cls-5,.cls-6,.cls-7{fill-rule:evenodd;}.cls-12,.cls-2{fill:#1b1c1c;}.cls-3{fill:#e0ac7e;}.cls-4,.cls-9{fill:#f2c196;}.cls-5{fill:#ebb688;}.cls-6{fill:#757777;}.cls-10,.cls-7{fill:#6cc;}.cls-8{fill:#fff;}.cls-11{fill:#f9d6aa;}.cls-13{fill:#efc396;}</style></defs><title>Fichier 2</title><g id="Calque_2" data-name="Calque 2"><g id="Calque_1-2" data-name="Calque 1"><path class="cls-1" d="M494.89,161.8l-28.15,23.89-31.49-40.27,11.7-5.55C458.7,150.72,474.86,157.62,494.89,161.8Z"/><path class="cls-1" d="M494.89,161.8,523,185.69l31.48-40.27-11.68-5.55C531.06,150.72,514.91,157.62,494.89,161.8Z"/><path class="cls-2" d="M255.22,631.68c2.46-27.86,13.27-57.07,5.5-82.93C242.59,511.81,157,494.39,115.84,500.94c-25.73,37.78-15.1,84.42-10.37,127.48Z"/><path class="cls-2" d="M179.88,630V504.4c35.13,7.2,70,22.29,80.84,44.35,7.77,25.86-3,55.07-5.5,82.93Z"/><path class="cls-1" d="M178.6,893.05a648.84,648.84,0,0,0,67.15-2.59V713.53l-7.55-2.88C221.6,704.3,201,697,178.6,694.34Z"/><path class="cls-1" d="M178.6,893.05a649,649,0,0,1-67.18-2.59V713.53l7.54-2.88c16.6-6.35,37.17-13.64,59.64-16.31Z"/><path class="cls-3" d="M130.64,659.54h95.89v50.51c-32,22.19-63.93,23.07-95.89,0Z"/><path class="cls-4" d="M139.08,555.8c-13.57-2.32-26.59,9.82-29,21.72a223.57,223.57,0,0,0-4.38,33.32c-.36-.06,1.64-.08-1.1-.08s-11.68,1.76-11.26,12.13c.34,7.77,8,30.36,18.24,26.66,14.74,34.47,34.57,53.92,67,60.82.52-.91.78-.22,1.28-.5V559.42A233.82,233.82,0,0,1,139.08,555.8Z"/><path class="cls-5" d="M219.38,555.8c13.59-2.32,26.59,9.82,29,21.72a222.3,222.3,0,0,1,4.4,33.32c.35-.06-1.65-.08,1.09-.08s11.68,1.76,11.25,12.13c-.3,7.77-8.06,30.36-18.24,26.66-14.93,34.94-35.07,54.18-68.3,60.82v-151A233.51,233.51,0,0,0,219.38,555.8Z"/><polygon class="cls-2" points="178.59 727.03 194.97 727.03 188.04 749.75 178.61 749.75 178.58 749.75 169.13 749.75 162.19 727.03 178.59 727.03"/><polygon class="cls-2" points="188.04 749.06 194.74 835.05 178.59 860.84 162.42 835.05 169.13 749.06 188.04 749.06"/><path class="cls-1" d="M178.6,727l-28.15,23.89L119,710.65l11.68-5.56C142.42,716,158.56,722.85,178.6,727Z"/><path class="cls-2" d="M178.6,858.51,109.53,714.26C47.12,737.77,7,755.89,0,824.92c28.35,44.18,96.06,80.35,178.6,80.29Z"/><path class="cls-2" d="M56.44,875.21c2.5,1.54,5.33,2.78,8,4.21l-.2-28.55Z"/><polygon class="cls-6" points="178.59 858.51 178.59 894.97 113.58 793.3 132.93 772.82 103.48 764.25 90.2 721.64 122.36 709.36 178.59 858.51"/><path class="cls-1" d="M178.6,727l28.11,23.89,31.49-40.27-11.67-5.56C214.75,716,198.6,722.85,178.6,727Z"/><path class="cls-2" d="M178.6,858.51l69.05-144.25c62.4,23.51,102.46,41.63,109.52,110.66-28.35,44.18-96,80.35-178.57,80.29Z"/><path class="cls-2" d="M300.75,875.21c-2.51,1.54-5.36,2.78-8,4.21l.2-28.55Z"/><polygon class="cls-6" points="178.59 858.51 178.59 894.97 243.59 793.3 224.23 772.82 253.71 764.25 266.98 721.64 235.98 709.6 178.59 858.51"/><path class="cls-2" d="M887.82,631.68c2.44-27.86,13.27-57.07,5.48-82.93-18.13-36.94-103.75-54.36-144.89-47.81-25.72,37.78-15.08,84.42-10.36,127.48Z"/><path class="cls-2" d="M812.5,630V504.4c35.11,7.2,70,22.29,80.8,44.35,7.79,25.86-3,55.07-5.48,82.93Z"/><path class="cls-1" d="M811.16,893.05a648.6,648.6,0,0,0,67.16-2.59V713.53l-7.52-2.88c-16.6-6.35-37.16-13.64-59.64-16.31Z"/><path class="cls-1" d="M811.16,893.05A647.92,647.92,0,0,1,744,890.46V713.53l7.53-2.88c16.62-6.35,37.16-13.64,59.6-16.31Z"/><path class="cls-3" d="M763.22,659.54h95.9v50.51c-32,22.19-63.93,23.07-95.9,0Z"/><path class="cls-4" d="M771.69,555.8c-13.59-2.32-26.6,9.82-29,21.72a223.57,223.57,0,0,0-4.38,33.32c-.36-.06,1.63-.08-1.11-.08s-11.66,1.76-11.24,12.13c.32,7.77,8.05,30.36,18.23,26.66,14.73,34.47,34.57,53.92,67,60.82.55-.91.82-.22,1.34-.5V559.42A233.68,233.68,0,0,1,771.69,555.8Z"/><path class="cls-5" d="M852,555.8c13.57-2.32,26.58,9.82,29,21.72a224.91,224.91,0,0,1,4.39,33.32c.35-.06-1.63-.08,1.12-.08s11.65,1.76,11.21,12.13c-.28,7.77-8,30.36-18.22,26.66-14.93,34.94-35.08,54.18-68.33,60.82v-151A233.68,233.68,0,0,0,852,555.8Z"/><polygon class="cls-2" points="811.16 727.03 827.57 727.03 820.63 749.75 811.18 749.75 811.15 749.75 801.71 749.75 794.79 727.03 811.16 727.03"/><polygon class="cls-2" points="820.63 749.06 827.34 835.05 811.16 860.84 795.02 835.05 801.71 749.06 820.63 749.06"/><path class="cls-1" d="M811.16,727,783,750.92l-31.48-40.27,11.66-5.56C775,716,791.16,722.85,811.16,727Z"/><path class="cls-2" d="M811.16,858.51l-69-144.25c-62.4,23.51-102.48,41.63-109.52,110.66,28.35,44.18,96,80.35,178.57,80.29Z"/><path class="cls-2" d="M689,875.21c2.5,1.54,5.34,2.78,8,4.21l-.17-28.55Z"/><polygon class="cls-6" points="811.16 858.51 811.16 894.97 746.17 793.3 765.51 772.82 736.07 764.25 722.8 721.64 754.94 709.36 811.16 858.51"/><path class="cls-1" d="M811.16,727l28.15,23.89,31.49-40.27-11.68-5.56C847.33,716,831.19,722.85,811.16,727Z"/><path class="cls-2" d="M811.16,858.51l69.06-144.25c62.42,23.51,102.5,41.63,109.54,110.66-28.36,44.18-96.06,80.35-178.6,80.29Z"/><path class="cls-2" d="M933.32,875.21c-2.5,1.54-5.33,2.78-8,4.21l.18-28.55Z"/><polygon class="cls-6" points="811.16 858.51 811.16 894.97 876.17 793.3 856.83 772.82 886.28 764.25 899.56 721.64 868.57 709.6 811.16 858.51"/><path class="cls-7" d="M215.75,417.54c24.08-37.7,57.87-70,98.47-94.3,6.42,8,13,16.22,19.76,24.63-36.21,21.62-66.38,50.37-87.89,83.93l11.3,5.33-58.62,45.5,6.63-70Z"/><path class="cls-7" d="M779.31,417.54c-24.07-37.7-57.87-70-98.45-94.3-6.46,8-13.07,16.22-19.8,24.63,36.22,21.62,66.4,50.37,87.93,83.93l-11.35,5.33,58.64,45.5-6.62-70Z"/><path class="cls-7" d="M450.57,877.76a364.84,364.84,0,0,0,145.71-9.15c-3.18-9.36-6.5-19-9.89-28.81a325.68,325.68,0,0,1-129.9,8.33l2.21-11.07-77.2,12,67,38.79Z"/><path class="cls-8" d="M653.16,316.5c-1.39-8.7-3.65-20-6.74-26.93L632,257.5a26.76,26.76,0,0,0-6.76-9.13,28.55,28.55,0,0,0-6.17-4.16c-9.58-4.79-20.81-9.55-32-13.79l-1.85-.7-1.46-.54c-2.24-.84-4.48-1.65-6.69-2.43-2.86-1-5.69-2-8.45-2.9l-.72-.24-1.13-.37-2.76-.9-.91-.29-.85-.26-3.59-1.12c-5.69-1.72-13.84-3.12-19.47-4.17l-1-.19h0c-1.29-.24-2.41-.47-3.29-.67l-.13.12a52.22,52.22,0,0,1-4.8,4.05h0a55.66,55.66,0,0,1-24.17,10.29h0a58,58,0,0,1-19.62-.06h0a55.79,55.79,0,0,1-23.65-10.11h0c-.91-.67-1.79-1.37-2.66-2.1a6.87,6.87,0,0,0-5.74-1.51H454l-1,.19c-1.94.36-4.19.76-6.53,1.21-4.44.84-9.22,1.83-12.94,2.95l-3.59,1.12-.85.26-1.82.59-1.32.42-1.19.4-.55.18-1.77.58L419,225.4h0l-2.83,1-1.64.58-2,.73-.91.33-.27.09-1.51.56-1.89.7c-.93.34-1.87.69-2.8,1-11.21,4.24-22.44,9-32,13.79a28.55,28.55,0,0,0-6.17,4.16,26.76,26.76,0,0,0-6.76,9.13l-14.4,32.07c-3.09,6.89-5.35,18.23-6.74,26.93-1.1,6.84,3.54,13.32,10.64,14.92l23.63,5.32,3.94.88,93.28,21h.07a116.46,116.46,0,0,0,51.08,0h0l93.28-21,3.94-.89,23.64-5.32C649.63,329.82,654.26,323.34,653.16,316.5Z"/><path class="cls-9" d="M526.72,186.24l-30.59,13.29-30.66-13.29c1.9,8.64-7.12,23.51-8.31,32.28l38.94,21.7L535,218.52C533.84,209.75,524.82,194.88,526.72,186.24Z"/><polygon class="cls-10" points="539.66 215.39 496.1 239.3 452.53 215.39 448.91 226.12 496.1 351.75 544.71 225.09 539.66 215.39"/><path class="cls-8" d="M584.83,232.29l-45.17-16.9S504.59,325.45,496.1,345.27c-8.5-19.82-43.57-129.88-43.57-129.88l-45.16,16.9,27.81,6-21.84,22.37,82,93.81c.11.46.21.92.3,1.37h.08l.41-.46.4.46h.09c.08-.45.19-.91.29-1.37l82-93.81L557,238.26Z"/><path class="cls-11" d="M431.34,86.44V99.71L434,139.8A75.23,75.23,0,0,0,439.57,161a20.2,20.2,0,0,0,3.18,5A127.67,127.67,0,0,0,494.87,202a3.81,3.81,0,0,0,2.45,0,127.67,127.67,0,0,0,52.12-35.92,19.92,19.92,0,0,0,3.18-5,74.89,74.89,0,0,0,5.55-21.22l2.68-40.09V86.44Z"/><path class="cls-11" d="M568,106.23c-.7-36.64-32.69-65.82-71.37-65.82h-1c-38.67,0-70.67,29.18-71.37,65.82,0,.42,0,.84,0,1.26H568C568,107.07,568,106.65,568,106.23Z"/><path class="cls-12" d="M601,188s-22.54,39.47-70,17.67c-2.5-6.56-5.07-13.47-4.39-18.55a122.19,122.19,0,0,0,22.87-20.6,19.92,19.92,0,0,0,3.18-5,74.79,74.79,0,0,0,5.55-21.22l2.36-35.33.32-10.09V92.2l-.28-.32a127.16,127.16,0,0,0-48.44-33.73c-3.31-1.33-5.87-2.82-6.89-4.45-1.54,6.91-34.78,19.68-44.76,25.56C434.85,94.35,438,96.47,431.71,105.65L434,140.23a75.13,75.13,0,0,0,5.55,21.22,20.2,20.2,0,0,0,3.18,5,122.19,122.19,0,0,0,22.87,20.6c.68,5.08-1.89,12-4.39,18.55-47.46,21.8-70-17.67-70-17.67,21.1-6.43,17.33-32.48,17.33-32.48-8.27-63.9,2.41-99,13.67-117.63,1.25-2.07,2.51-3.93,3.75-5.61a74.16,74.16,0,0,1,7.68-8.35,79.71,79.71,0,0,1,8.84-7.11A85.53,85.53,0,0,1,469.86,3.6a98.39,98.39,0,0,1,52.5-.07c1.21.33,2.42.69,3.62,1.08A85.69,85.69,0,0,1,555.74,21c.55.47,1.09.95,1.63,1.44h0q2.36,2.14,4.51,4.5a67.75,67.75,0,0,1,5.39,6.72c1.21,1.75,2.43,3.66,3.64,5.78,10.9,19,20.77,53.91,12.73,116C583.64,155.49,579.88,181.54,601,188Z"/><path class="cls-13" d="M580.56,108.5c-.69,9.9-9.45,25.62-17,25.15L566,97.79h.21l1.45.09a34.51,34.51,0,0,1,6.36.86C578.12,99.82,581,102.27,580.56,108.5Z"/><path class="cls-13" d="M411.63,108.5c.69,9.9,9.67,25.61,17.43,25.12l-2.48-35.86h-.22l-1.49.1a36.16,36.16,0,0,0-6.53.87C414.15,99.82,411.2,102.27,411.63,108.5Z"/></g></g></svg>