<svg width="347" height="326" viewBox="0 0 347 326" fill="none" xmlns="http://www.w3.org/2000/svg">
<path fill-rule="evenodd" clip-rule="evenodd" d="M173.613 58.1757L183.502 66.7461L194.522 52.2835L190.446 50.2939C186.294 54.1966 180.633 56.7218 173.613 58.1757Z" fill="#F0FAFC"/>
<path fill-rule="evenodd" clip-rule="evenodd" d="M89.675 227.442C90.5054 217.417 94.3551 206.857 91.6376 197.598C85.297 184.283 55.3298 178.009 40.9124 180.381C31.9298 194.002 35.6285 210.76 37.2891 226.294L89.675 227.442Z" fill="#1B1C1C"/>
<path fill-rule="evenodd" clip-rule="evenodd" d="M63.3311 226.829V181.605C75.6349 184.207 87.8634 189.64 91.6376 197.598C94.355 206.934 90.5808 217.417 89.675 227.442L63.3311 226.829Z" fill="#1B1C1C"/>
<path fill-rule="evenodd" clip-rule="evenodd" d="M62.5763 321.334C70.5021 321.41 78.277 321.104 85.9763 320.416V257.056L83.3344 256.061C77.5221 253.765 70.3511 251.163 62.5763 250.245V321.334Z" fill="#F0FAFC"/>
<path fill-rule="evenodd" clip-rule="evenodd" d="M62.5763 321.334C54.6505 321.41 46.8756 321.104 39.1763 320.416V257.056L41.8182 256.061C47.6305 253.765 54.8015 251.163 62.5763 250.245V321.334Z" fill="#F0FAFC"/>
<path fill-rule="evenodd" clip-rule="evenodd" d="M45.9697 237.39H79.1827V255.525C68.0865 263.483 57.0659 263.866 45.9697 255.525V237.39V237.39Z" fill="#E0AC7E"/>
<path fill-rule="evenodd" clip-rule="evenodd" d="M48.989 200.123C44.2335 199.282 39.7045 203.643 38.7987 207.929C38.0438 211.831 37.44 215.887 37.289 219.943C37.138 219.943 37.8929 219.943 36.9116 219.943C35.9303 219.943 32.8354 220.555 32.9864 224.304C33.1374 227.136 35.7793 235.247 39.4026 233.869C44.5355 246.266 51.48 253.306 62.8781 255.755C63.0291 255.449 63.18 255.678 63.331 255.602V201.424C58.7265 201.424 54.1219 200.965 48.989 200.123Z" fill="#F2C196"/>
<path fill-rule="evenodd" clip-rule="evenodd" d="M76.8427 200.123C81.5982 199.282 86.1272 203.643 87.033 207.929C87.7879 211.831 88.3917 215.887 88.5427 219.943C88.6937 219.943 87.9388 219.943 88.9201 219.943C89.9014 219.943 92.9963 220.555 92.8453 224.304C92.7698 227.136 90.0524 235.247 86.4292 233.869C81.2208 246.419 74.1253 253.383 62.5007 255.755V201.424C67.1053 201.424 71.7098 200.965 76.8427 200.123Z" fill="#EBB688"/>
<path fill-rule="evenodd" clip-rule="evenodd" d="M62.8027 261.876H68.6904L66.1994 270.294H62.8027H59.4059L56.9149 261.876H62.8027Z" fill="#1B1C1C"/>
<path fill-rule="evenodd" clip-rule="evenodd" d="M66.124 269.529L68.464 300.443L62.8027 309.779L57.1414 300.443L59.4814 269.529H66.124Z" fill="#1B1C1C"/>
<path fill-rule="evenodd" clip-rule="evenodd" d="M62.8027 261.723L52.9143 270.294L41.8937 255.755L45.9698 253.765C50.1214 257.744 55.7827 260.269 62.8027 261.723Z" fill="#F0FAFC"/>
<path fill-rule="evenodd" clip-rule="evenodd" d="M62.5762 309.09L38.3459 257.132C16.4555 265.626 2.41549 272.13 0 297C9.96389 312.916 33.6659 325.925 62.5762 325.925V309.09Z" fill="#0C097F"/>
<path fill-rule="evenodd" clip-rule="evenodd" d="M19.7767 315.136C20.6825 315.671 21.6638 316.13 22.5696 316.666L22.4942 306.412L19.7767 315.136Z" fill="#0C097F"/>
<path fill-rule="evenodd" clip-rule="evenodd" d="M62.5763 309.09V322.252L39.7801 285.598L46.5736 278.252L36.2323 275.191L31.6278 259.81L42.8749 255.372L62.5763 309.09Z" fill="#0B0647"/>
<path fill-rule="evenodd" clip-rule="evenodd" d="M62.8026 261.723L72.6155 270.294L83.6362 255.755L79.5601 253.765C75.4839 257.744 69.8226 260.269 62.8026 261.723Z" fill="#F0FAFC"/>
<path fill-rule="evenodd" clip-rule="evenodd" d="M62.5763 309.09L86.7312 257.132C108.622 265.626 122.586 272.13 125.077 297C115.189 312.916 91.4867 325.925 62.5763 325.925V309.09Z" fill="#0C097F"/>
<path fill-rule="evenodd" clip-rule="evenodd" d="M105.376 315.136C104.47 315.671 103.489 316.13 102.583 316.666L102.658 306.412L105.376 315.136Z" fill="#0C097F"/>
<path fill-rule="evenodd" clip-rule="evenodd" d="M62.5763 309.09V322.252L85.297 285.598L78.5789 278.252L88.8447 275.191L93.5247 259.81L82.655 255.448L62.5763 309.09Z" fill="#0B0647"/>
<path fill-rule="evenodd" clip-rule="evenodd" d="M311.221 227.442C312.051 217.417 315.901 206.857 313.108 197.598C306.767 184.283 276.8 178.009 262.382 180.381C253.4 194.002 257.099 210.76 258.759 226.294L311.221 227.442Z" fill="#1B1C1C"/>
<path fill-rule="evenodd" clip-rule="evenodd" d="M285.254 226.829V181.605C297.558 184.207 309.786 189.64 313.561 197.598C316.278 206.934 312.504 217.417 311.673 227.442L285.254 226.829Z" fill="#1B1C1C"/>
<path fill-rule="evenodd" clip-rule="evenodd" d="M284.499 321.334C292.425 321.41 300.2 321.104 307.899 320.416V257.056L305.257 256.061C299.445 253.765 292.35 251.163 284.499 250.245V321.334Z" fill="#F0FAFC"/>
<path fill-rule="evenodd" clip-rule="evenodd" d="M284.499 321.41C276.573 321.487 268.799 321.181 261.099 320.492V257.056L263.741 256.061C269.553 253.765 276.724 251.163 284.499 250.245V321.41Z" fill="#F0FAFC"/>
<path fill-rule="evenodd" clip-rule="evenodd" d="M267.893 237.39H301.106V255.525C290.01 263.483 278.989 263.866 267.893 255.525V237.39Z" fill="#E0AC7E"/>
<path fill-rule="evenodd" clip-rule="evenodd" d="M270.912 200.123C266.157 199.282 261.628 203.643 260.722 207.929C259.967 211.831 259.363 215.887 259.212 219.943C259.061 219.943 259.816 219.943 258.835 219.943C257.853 219.943 254.759 220.555 254.91 224.304C254.985 227.136 257.702 235.247 261.326 233.869C266.459 246.266 273.403 253.306 284.801 255.755C285.028 255.449 285.103 255.678 285.254 255.602V201.424C280.65 201.424 276.045 200.965 270.912 200.123Z" fill="#F2C196"/>
<path fill-rule="evenodd" clip-rule="evenodd" d="M298.766 200.123C303.521 199.282 308.05 203.643 308.956 207.929C309.711 211.831 310.315 215.887 310.466 219.943C310.617 219.943 309.862 219.943 310.843 219.943C311.824 219.943 314.919 220.555 314.768 224.304C314.693 227.136 311.975 235.247 308.352 233.869C303.144 246.419 296.048 253.383 284.424 255.755V201.424C289.104 201.424 293.633 200.965 298.766 200.123Z" fill="#EBB688"/>
<path fill-rule="evenodd" clip-rule="evenodd" d="M284.424 261.876H290.312L287.821 270.294H284.424H281.027L278.536 261.876H284.424Z" fill="#1B1C1C"/>
<path fill-rule="evenodd" clip-rule="evenodd" d="M287.745 269.529L290.085 300.443L284.424 309.779L278.762 300.443L281.102 269.529H287.745Z" fill="#1B1C1C"/>
<path fill-rule="evenodd" clip-rule="evenodd" d="M284.424 261.723L274.535 270.294L263.515 255.755L267.591 253.765C271.742 257.744 277.404 260.269 284.424 261.723Z" fill="#F0FAFC"/>
<path fill-rule="evenodd" clip-rule="evenodd" d="M284.499 309.09L260.344 257.132C238.454 265.626 224.414 272.13 221.998 297C231.962 312.916 255.664 325.925 284.575 325.925V309.09H284.499Z" fill="#1B1C1C"/>
<path fill-rule="evenodd" clip-rule="evenodd" d="M241.7 315.136C242.606 315.671 243.587 316.13 244.493 316.666L244.417 306.412L241.7 315.136Z" fill="#1B1C1C"/>
<path fill-rule="evenodd" clip-rule="evenodd" d="M284.499 309.09V322.252L261.703 285.598L268.497 278.252L258.155 275.191L253.551 259.81L264.798 255.372L284.499 309.09Z" fill="#757777"/>
<path fill-rule="evenodd" clip-rule="evenodd" d="M284.424 261.723L294.312 270.294L305.333 255.755L301.257 253.765C297.105 257.744 291.444 260.269 284.424 261.723Z" fill="#F0FAFC"/>
<path fill-rule="evenodd" clip-rule="evenodd" d="M284.499 309.09L308.654 257.132C330.545 265.626 344.585 272.13 347 297C337.112 312.916 313.41 325.925 284.499 325.925V309.09Z" fill="#1B1C1C"/>
<path fill-rule="evenodd" clip-rule="evenodd" d="M327.299 315.136C326.393 315.671 325.412 316.13 324.506 316.666L324.581 306.412L327.299 315.136Z" fill="#1B1C1C"/>
<path fill-rule="evenodd" clip-rule="evenodd" d="M284.499 309.09V322.252L307.22 285.598L300.502 278.252L310.768 275.191L315.448 259.81L304.578 255.448L284.499 309.09Z" fill="#757777"/>
<path fill-rule="evenodd" clip-rule="evenodd" d="M75.8614 150.308C84.3156 136.764 96.1666 125.132 110.358 116.332C112.622 119.24 114.962 122.148 117.302 125.209C104.621 133.014 94.0531 143.344 86.5047 155.435L90.4298 157.348L69.8982 173.724L72.2382 148.548L75.8614 150.308Z" fill="#66CCCC"/>
<path fill-rule="evenodd" clip-rule="evenodd" d="M273.252 150.308C264.798 136.764 252.947 125.132 238.756 116.332C236.491 119.24 234.151 122.148 231.811 125.209C244.493 133.014 255.06 143.344 262.609 155.435L258.608 157.348L279.14 173.724L276.8 148.548L273.252 150.308Z" fill="#66CCCC"/>
<path fill-rule="evenodd" clip-rule="evenodd" d="M158.063 316.054C175.123 318.502 192.635 317.355 209.091 312.763C207.958 309.396 206.826 305.953 205.618 302.356C190.975 306.489 175.349 307.483 160.102 305.341L160.856 301.362L133.833 305.723L157.309 319.727L158.063 316.054Z" fill="#66CCCC"/>
<path d="M229.094 113.883C228.641 110.746 227.811 106.69 226.754 104.165L221.697 92.6104C221.168 91.3861 220.338 90.2382 219.357 89.32C218.677 88.7078 217.998 88.2487 217.168 87.7896C213.846 86.0296 209.846 84.3461 205.92 82.8156C205.694 82.7391 205.468 82.6626 205.241 82.5861C205.09 82.5096 204.864 82.433 204.713 82.3565C203.958 82.0504 203.128 81.7443 202.373 81.5148C201.391 81.1322 200.41 80.8261 199.429 80.4435C199.353 80.4435 199.278 80.3669 199.202 80.3669C199.051 80.2904 198.9 80.2904 198.825 80.2139C198.523 80.1374 198.146 79.9843 197.844 79.9078C197.768 79.9078 197.617 79.8313 197.542 79.8313C197.466 79.8313 197.315 79.7548 197.24 79.7548C196.787 79.6017 196.409 79.4487 195.957 79.3722C193.994 78.76 191.126 78.2243 189.163 77.8417C189.012 77.8417 188.937 77.7652 188.786 77.7652C188.333 77.6887 187.955 77.6122 187.653 77.5356L187.578 77.6122C187.049 78.1478 186.446 78.6069 185.917 78.913C183.351 80.9791 180.482 82.2035 177.463 82.7391C175.198 83.1217 172.858 83.1217 170.594 82.7391C167.65 82.2035 164.782 80.9791 162.291 79.6782C161.989 78.8365 161.687 78.6069 161.385 78.3009C160.856 77.8417 160.102 77.6122 159.347 77.7652C159.196 77.7652 159.12 77.8417 158.969 77.8417C158.29 77.9948 157.535 78.1478 156.705 78.3009C155.12 78.6069 153.459 78.9896 152.176 79.3722C151.798 79.5252 151.345 79.6017 150.893 79.7548C150.817 79.7548 150.666 79.8313 150.591 79.8313C150.364 79.9078 150.138 79.9843 149.987 80.0609C149.836 80.1374 149.685 80.1374 149.534 80.2139C149.383 80.2904 149.232 80.2904 149.081 80.3669C149.005 80.3669 148.93 80.4435 148.855 80.4435C148.628 80.52 148.477 80.5965 148.251 80.673C147.873 80.8261 147.42 80.9791 147.043 81.1322C146.741 81.2852 146.364 81.3617 146.062 81.5148C145.835 81.5913 145.684 81.6678 145.458 81.7443C145.231 81.8209 145.005 81.8974 144.778 81.9739C144.703 82.0504 144.552 82.0504 144.476 82.1269H144.401C144.25 82.2035 144.024 82.28 143.873 82.3565C143.646 82.433 143.42 82.5096 143.193 82.5861C142.891 82.7391 142.514 82.8156 142.212 82.9687C138.287 84.4991 134.362 86.1826 130.965 87.9426C130.21 88.3252 129.455 88.8609 128.776 89.473C127.794 90.3913 126.964 91.5391 126.436 92.7635L121.378 104.318C120.322 106.767 119.491 110.899 119.038 114.036C118.661 116.485 120.246 118.857 122.737 119.393L131.04 121.306L132.399 121.612L165.084 129.188C170.971 130.565 177.086 130.565 182.973 129.188L215.658 121.612L217.017 121.306L225.32 119.393C227.811 118.704 229.471 116.409 229.094 113.883Z" fill="white"/>
<path d="M184.785 66.9756L174.066 71.7965L163.347 66.9756C164.027 70.113 160.856 75.4695 160.404 78.6069L174.066 86.4121L187.729 78.6069C187.276 75.4695 184.106 70.113 184.785 66.9756Z" fill="#F2C196"/>
<path d="M189.314 77.5356L174.066 86.1061L158.818 77.5356L157.535 81.3617L174.066 126.586L191.05 80.9791L189.314 77.5356Z" fill="#66CCCC"/>
<path d="M205.09 83.5808L189.238 77.4591C189.238 77.4591 176.935 117.097 173.991 124.214C171.047 117.097 158.743 77.4591 158.743 77.4591L142.891 83.5808L152.629 85.7234L145.005 93.7582L173.689 127.504C173.689 127.657 173.764 127.81 173.764 127.963L173.915 127.81L174.066 127.963C174.066 127.81 174.142 127.657 174.142 127.504L202.826 93.7582L195.202 85.7234L205.09 83.5808Z" fill="white"/>
<path d="M151.647 30.7809V35.5252L152.553 49.9878C152.931 53.5844 153.912 56.2626 154.516 57.64C154.818 58.3287 155.195 58.8643 155.648 59.4765C162.819 68.1235 171.802 71.6435 173.84 72.4087C174.142 72.4852 174.444 72.4852 174.67 72.4087C176.708 71.6435 185.691 68.1235 192.862 59.4765C193.315 58.9409 193.692 58.3287 193.994 57.64C194.598 56.2626 195.504 53.6609 195.956 49.9878L196.862 35.5252V30.7809H151.647V30.7809Z" fill="#F9D6AA"/>
<path d="M199.58 38.7392C199.278 25.3479 187.955 14.7114 174.217 14.7114H173.84C159.951 14.7114 148.477 25.5775 148.477 39.1984H199.504C199.58 39.0453 199.58 38.8923 199.58 38.7392Z" fill="#F9D6AA"/>
<path d="M210.978 67.6643C210.978 67.6643 203.052 81.8973 186.445 74.0156C185.54 71.6434 184.634 69.1947 184.936 67.3582C187.578 65.4452 190.371 62.9965 192.937 59.9356C193.39 59.4 193.767 58.7878 194.069 58.0991C194.673 56.7217 195.579 54.0434 196.032 50.4469L196.862 37.7443L196.938 34.1478V33.2295C196.938 33.2295 196.862 33.153 196.862 33.0765C192.333 27.72 186.445 23.6643 179.878 20.9096C178.746 20.4504 177.84 19.9148 177.463 19.3026C176.935 21.8278 165.31 26.4191 161.762 28.4852C152.78 33.9182 153.912 34.6835 151.647 37.9739L152.478 50.4469C152.931 54.0434 153.836 56.7217 154.44 58.0991C154.742 58.7878 155.12 59.3234 155.573 59.9356C158.139 62.9965 160.932 65.4452 163.574 67.3582C163.8 69.1947 162.894 71.6434 162.064 74.0156C145.458 81.8973 137.532 67.6643 137.532 67.6643C144.929 65.3687 143.571 55.9565 143.571 55.9565C140.702 32.9235 144.401 20.2974 148.326 13.5635C148.779 12.7983 149.232 12.1096 149.609 11.5739C150.44 10.5026 151.345 9.50782 152.327 8.58956C153.308 7.6713 154.365 6.82956 155.422 6.06434C158.29 3.92174 161.536 2.31478 165.008 1.32C170.971 -0.44 177.463 -0.44 183.426 1.32C183.879 1.47304 184.256 1.54956 184.709 1.70261C188.559 2.92695 192.107 4.91652 195.126 7.59478C195.353 7.74782 195.504 7.90086 195.73 8.13043C196.258 8.66608 196.787 9.20173 197.315 9.73739C197.995 10.5026 198.598 11.2678 199.202 12.1861C199.655 12.7983 200.033 13.4869 200.486 14.2522C204.335 21.1391 207.732 33.6887 204.939 56.033C204.864 55.9565 203.58 65.2921 210.978 67.6643Z" fill="#1B1C1C"/>
<path d="M203.656 39.0452C203.429 42.6417 200.335 48.3043 197.693 48.0747L198.523 35.1426H198.598C198.749 35.1426 198.9 35.1426 199.127 35.1426C199.882 35.2191 200.712 35.2956 201.316 35.4487C202.75 35.9078 203.807 36.7495 203.656 39.0452Z" fill="#EFC396"/>
<path d="M144.476 39.0452C144.703 42.6417 147.873 48.3043 150.591 48.0747L149.685 35.1426H149.609C149.458 35.1426 149.232 35.1426 149.081 35.1426C148.251 35.2191 147.496 35.2956 146.816 35.4487C145.307 35.9078 144.325 36.7495 144.476 39.0452Z" fill="#EFC396"/>
</svg>
