<svg width="254" height="254" viewBox="0 0 254 254" fill="none" xmlns="http://www.w3.org/2000/svg">
<path d="M185.95 83.4C199.56 100.44 207.71 122.04 207.71 145.5C207.71 200.45 163 245.16 108.05 245.16C53.09 245.16 8.38 200.45 8.38 145.5C8.38 90.54 53.09 45.83 108.05 45.83C131.97 45.83 153.95 54.3 171.15 68.4C173.12 66.41 175.09 64.41 177.06 62.42C158.33 46.83 134.27 37.45 108.05 37.45C48.47 37.45 0 85.92 0 145.5C0 205.07 48.47 253.54 108.05 253.54C167.62 253.54 216.09 205.07 216.09 145.5C216.09 119.71 207.01 96 191.87 77.4C189.9 79.4 187.92 81.4 185.95 83.4Z" fill="#6DC4C7"/>
<path d="M156.18 83.54C142.88 73.18 126.18 67.01 108.05 67.01C64.7701 67.01 29.5601 102.22 29.5601 145.5C29.5601 188.78 64.7701 223.98 108.05 223.98C151.33 223.98 186.53 188.77 186.53 145.5C186.53 127.93 180.73 111.69 170.94 98.6C168.95 100.62 166.97 102.63 164.98 104.64C173.26 116.15 178.15 130.26 178.15 145.5C178.15 184.16 146.7 215.6 108.05 215.6C69.3901 215.6 37.94 184.15 37.94 145.5C37.94 106.85 69.3901 75.39 108.05 75.39C123.88 75.39 138.5 80.66 150.24 89.55C152.22 87.55 154.2 85.55 156.18 83.54Z" fill="#6DC4C7"/>
<path d="M108.05 109.15C114.61 109.15 120.77 110.9 126.09 113.95C128.11 111.92 130.12 109.88 132.15 107.83C125.19 103.36 116.92 100.77 108.05 100.77C83.3801 100.77 63.3101 120.84 63.3101 145.51C63.3101 170.17 83.3801 190.24 108.05 190.24C132.71 190.24 152.78 170.17 152.78 145.51C152.78 137.36 150.59 129.71 146.77 123.13C144.71 125.21 142.66 127.3 140.61 129.37C143.03 134.24 144.4 139.72 144.4 145.51C144.4 165.55 128.09 181.86 108.05 181.86C88.0001 181.86 71.6901 165.55 71.6901 145.51C71.6901 125.45 88.0001 109.15 108.05 109.15Z" fill="#6DC4C7"/>
<path d="M240.82 18.93C241.77 13.22 240.04 11.72 234.28 13.3C233.88 8.96999 233.48 4.66 233.05 0C232.41 0.5 232.03 0.729999 231.73 1.03C224.27 8.57 216.8 16.1 209.39 23.69C208.73 24.36 208.28 25.41 208.12 26.36C207.32 31.03 206.79 35.76 205.86 40.4C205.52 42.09 204.71 43.97 203.52 45.17C174.86 74.24 146.13 103.24 117.41 132.24C114.76 130.37 111.54 129.27 108.05 129.27C99.0901 129.27 91.8201 136.54 91.8201 145.5C91.8201 154.46 99.0901 161.73 108.05 161.73C117.01 161.73 124.28 154.46 124.28 145.5C124.28 142.86 123.64 140.37 122.52 138.16C151.72 108.54 180.92 78.92 210.17 49.35C211.13 48.38 212.64 47.7 214 47.42C218.28 46.56 222.63 46.03 226.92 45.21C228.02 45 229.24 44.45 230.02 43.67C237.27 36.44 244.44 29.14 251.62 21.84C252.09 21.36 252.48 20.79 253.15 19.97C248.76 19.61 244.8 19.27 240.82 18.93Z" fill="#6DC4C7"/>
</svg>
