<svg width="216" height="216" viewBox="0 0 216 216" fill="none" xmlns="http://www.w3.org/2000/svg">
<path d="M216 108C216 167.65 167.65 216 108 216C100.51 216 93.21 215.23 86.16 213.78C36.98 203.68 0 160.16 0 108C0 48.35 48.35 0 108 0C160.16 0 203.68 36.98 213.78 86.16C215.24 93.21 216 100.51 216 108Z" fill="#6DC4C7"/>
<path d="M171.93 44.07L44.0701 171.93C82.2801 221.32 146.09 211.02 178.56 178.56C211.02 146.1 221.32 82.28 171.93 44.07Z" fill="#6DC4C7"/>
<path d="M108 198.41C157.932 198.41 198.41 157.932 198.41 108C198.41 58.0679 157.932 17.59 108 17.59C58.068 17.59 17.5901 58.0679 17.5901 108C17.5901 157.932 58.068 198.41 108 198.41Z" fill="white"/>
<path d="M108 148.62C106.32 148.62 104.96 149.98 104.96 151.66V158.61C104.96 160.29 106.32 161.65 108 161.65C109.68 161.65 111.04 160.29 111.04 158.61V151.66C111.04 149.98 109.68 148.62 108 148.62Z" fill="#6DC4C7"/>
<path d="M131.39 146.33C130.98 145.63 130.33 145.12 129.54 144.91C128.75 144.7 127.93 144.81 127.23 145.21C125.78 146.05 125.28 147.91 126.12 149.36L129.75 155.64C130.29 156.58 131.3 157.16 132.39 157.16C132.92 157.16 133.45 157.02 133.91 156.75C135.36 155.91 135.86 154.05 135.02 152.6L131.39 146.33Z" fill="#6DC4C7"/>
<path d="M108 70.9C109.68 70.9 111.04 69.54 111.04 67.86V60.91C111.04 59.23 109.68 57.87 108 57.87C106.32 57.87 104.96 59.23 104.96 60.91V67.86C104.96 69.54 106.32 70.9 108 70.9Z" fill="#6DC4C7"/>
<path d="M84.6199 73.19C85.1599 74.13 86.1699 74.71 87.2599 74.71C87.7899 74.71 88.3199 74.57 88.7799 74.3C89.4799 73.89 89.9899 73.24 90.1999 72.45C90.4099 71.67 90.2999 70.85 89.8999 70.14L86.2699 63.86C85.4299 62.41 83.5699 61.91 82.1099 62.75C80.6599 63.59 80.1599 65.45 80.9999 66.91L84.6199 73.19Z" fill="#6DC4C7"/>
<path d="M88.7698 145.21C87.3198 144.37 85.4499 144.87 84.6099 146.32L80.9799 152.6C80.1399 154.05 80.6399 155.92 82.0899 156.76C82.5499 157.03 83.0799 157.17 83.6099 157.17C84.6899 157.17 85.7099 156.59 86.2499 155.65L89.8799 149.37C90.7199 147.91 90.2298 146.05 88.7698 145.21Z" fill="#6DC4C7"/>
<path d="M127.23 74.31C127.69 74.58 128.22 74.72 128.75 74.72C129.83 74.72 130.85 74.14 131.39 73.2L135.02 66.92C135.86 65.47 135.36 63.6 133.91 62.77C133.21 62.36 132.39 62.26 131.6 62.47C130.82 62.68 130.16 63.18 129.75 63.89L126.12 70.17C125.28 71.6 125.78 73.47 127.23 74.31Z" fill="#6DC4C7"/>
<path d="M134.59 109.75C134.6 95.16 122.71 83.24 108.08 83.19C93.4999 83.14 81.5599 95.03 81.4799 109.65C81.3999 124.24 93.4399 136.31 108.06 136.29C122.64 136.28 134.58 124.34 134.59 109.75ZM120.95 109.93C120.76 117.1 114.92 122.8 107.91 122.67C100.71 122.53 94.9699 116.63 95.1299 109.54C95.2899 102.32 101.18 96.64 108.3 96.83C115.46 97.04 121.14 102.91 120.95 109.93Z" fill="#6DC4C7"/>
<path d="M155.71 96.07C147.2 88.41 137.77 82.17 126.85 78.43C122.86 77.06 118.78 76.09 114.59 75.7C131 79.48 141.94 92.33 142.53 108.89C142.83 117.27 140.2 124.8 134.94 131.34C129.68 137.89 122.84 141.93 114.37 143.73C114.78 143.79 114.91 143.82 115.04 143.82C115.31 143.8 115.57 143.77 115.83 143.73C124.1 142.53 131.78 139.67 139.01 135.54C150.68 128.88 160.35 119.87 169.2 109.88C169.25 109.83 169.22 109.71 169.28 109.25C164.88 104.95 160.46 100.34 155.71 96.07Z" fill="#6DC4C7"/>
<path d="M73.55 110.89C73.18 102.4 75.8 94.79 81.11 88.16C86.39 81.58 93.26 77.54 101.45 75.58C97.82 76.23 94.2099 76.93 90.7099 77.99C81.2299 80.85 72.92 85.91 65.19 91.99C58.47 97.27 52.45 103.29 46.71 109.76C52.03 115.74 57.56 121.31 63.67 126.29C72.85 133.76 82.8299 139.74 94.4599 142.59C96.7299 143.15 99.05 143.52 101.35 143.97C85.01 139.85 74.26 127.29 73.55 110.89Z" fill="#6DC4C7"/>
<path d="M108.17 103.74C108.12 103.74 108.08 103.74 108.03 103.74C108.03 103.77 108.03 103.8 108.03 103.82C107.96 107.1 105.28 109.75 102.02 109.74C102.02 113.02 104.66 115.71 107.97 115.75C111.25 115.79 113.98 113.13 114.04 109.83C114.11 106.54 111.49 103.82 108.17 103.74Z" fill="#6DC4C7"/>
</svg>
