<svg width="4169" height="811" viewBox="0 0 4169 811" fill="none" xmlns="http://www.w3.org/2000/svg">
<path d="M-1.16086e-05 383.118C0.000121768 399.181 7.70209 413.444 19.6133 422.419L19.6133 422.479L393.382 791.33L393.443 791.33C402.416 803.272 416.699 810.997 432.786 810.997L639.343 810.997C671.936 810.997 698.358 784.575 698.358 751.981L698.358 614.277C698.358 581.684 671.936 555.261 639.343 555.261L506.496 555.261L506.496 555.241L373.683 555.241C308.495 555.241 255.65 502.396 255.65 437.209L255.65 386.039C255.707 385.073 255.736 384.099 255.736 383.118L255.736 176.562C255.736 143.968 229.314 117.545 196.721 117.545L59.0166 117.545C26.4229 117.545 -1.15498e-06 143.968 -2.5797e-06 176.562L-1.16086e-05 383.118Z" fill="#3289FF"/>
<path d="M600.354 0C617.141 0.000117554 632.036 8.10157 641.344 20.6074L1023.92 408.289C1036.5 417.591 1044.66 432.527 1044.66 449.37V663.847C1044.66 697.69 1017.22 725.126 983.377 725.126H840.392C806.548 725.126 779.113 697.69 779.113 663.847V525.979H779.052V388.096C779.052 320.409 724.18 265.537 656.493 265.537H601.068C600.83 265.54 600.592 265.543 600.354 265.543H385.877C352.033 265.543 324.598 238.107 324.598 204.264V61.2793C324.598 27.4358 352.033 0 385.877 0H600.354Z" fill="#3289FF"/>
<path d="M1436.22 390.044C1436.22 349.622 1443.93 311.594 1459.35 275.959C1474.78 240.324 1496.05 208.678 1523.18 181.021C1550.3 153.364 1581.68 131.823 1617.32 116.399C1653.49 100.443 1692.05 92.4653 1733 92.4653C1773.42 92.4653 1811.45 100.443 1847.08 116.399C1883.25 131.823 1914.9 153.364 1942.02 181.021C1969.68 208.678 1991.22 240.324 2006.64 275.959C2022.6 311.594 2030.58 349.622 2030.58 390.044C2030.58 430.998 2022.6 469.292 2006.64 504.927C1991.22 540.562 1969.68 572.208 1942.02 599.865C1914.9 626.99 1883.25 648.264 1847.08 663.689C1811.45 678.581 1773.42 686.027 1733 686.027C1691.51 686.027 1652.95 678.581 1617.32 663.689C1581.68 648.264 1550.3 627.256 1523.18 600.663C1496.05 573.537 1474.78 542.157 1459.35 506.522C1443.93 470.356 1436.22 431.529 1436.22 390.044ZM1531.95 390.044C1531.95 418.765 1537.01 445.624 1547.11 470.621C1557.75 495.619 1572.38 517.692 1590.99 536.839C1609.61 555.454 1631.15 570.08 1655.61 580.718C1680.08 591.355 1706.67 596.674 1735.39 596.674C1763.05 596.674 1788.85 591.355 1812.78 580.718C1837.25 570.08 1858.52 555.454 1876.6 536.839C1894.69 517.692 1908.78 495.619 1918.89 470.621C1929.52 445.624 1934.84 418.765 1934.84 390.044C1934.84 360.791 1929.52 333.666 1918.89 308.669C1908.25 283.671 1893.89 261.598 1875.81 242.451C1857.72 223.304 1836.45 208.412 1811.98 197.775C1787.52 187.137 1761.19 181.819 1733 181.819C1704.81 181.819 1678.48 187.137 1654.02 197.775C1629.55 208.412 1608.01 223.304 1589.4 242.451C1571.31 261.598 1557.22 283.937 1547.11 309.466C1537.01 334.464 1531.95 361.323 1531.95 390.044ZM2272.68 688.42L2078.82 342.176H2184.93L2306.99 595.876L2251.94 593.482L2362.04 342.176H2461.76L2276.67 688.42H2272.68ZM2654.98 688.42C2623.07 688.42 2594.08 681.772 2568.02 668.475C2542.49 655.179 2522.28 635.5 2507.39 609.438C2492.49 582.845 2485.05 550.135 2485.05 511.309C2485.05 473.015 2492.76 440.305 2508.18 413.18C2524.14 385.523 2544.88 364.248 2570.41 349.356C2596.47 334.464 2624.66 327.018 2654.98 327.018C2687.42 327.018 2713.48 333.4 2733.16 346.165C2753.37 358.93 2769.06 374.088 2780.23 391.64L2775.45 404.404L2784.22 342.176H2866.4V679.645H2777.04V597.471L2785.82 619.012C2783.69 622.203 2779.44 627.522 2773.05 634.968C2766.67 641.882 2757.9 649.594 2746.73 658.104C2735.56 666.614 2722.26 673.794 2706.84 679.645C2691.94 685.495 2674.66 688.42 2654.98 688.42ZM2679.71 615.023C2695.67 615.023 2710.03 612.098 2722.79 606.247C2736.09 600.397 2747.26 592.153 2756.3 581.515C2765.87 570.878 2772.79 558.113 2777.04 543.221V469.824C2772.79 455.995 2765.87 444.028 2756.3 433.923C2746.73 423.285 2735.03 415.042 2721.2 409.191C2707.9 403.341 2693.01 400.415 2676.52 400.415C2658.44 400.415 2641.68 404.936 2626.26 413.978C2610.83 423.02 2598.34 435.518 2588.76 451.474C2579.72 467.43 2575.2 485.78 2575.2 506.522C2575.2 526.733 2579.99 545.083 2589.56 561.57C2599.13 578.058 2611.9 591.089 2627.85 600.663C2643.81 610.236 2661.1 615.023 2679.71 615.023ZM3261.03 648.53C3246.14 660.763 3227.79 670.603 3205.98 678.049C3184.71 684.963 3163.17 688.42 3141.36 688.42C3104.13 688.42 3071.42 681.24 3043.23 666.88C3015.04 651.988 2992.97 631.511 2977.02 605.449C2961.59 578.856 2953.88 547.21 2953.88 510.511C2953.88 473.813 2962.12 442.167 2978.61 415.573C2995.63 388.98 3017.7 368.769 3044.83 354.941C3072.49 340.58 3101.74 333.4 3132.59 333.4C3160.78 333.4 3185.77 337.389 3207.58 345.367C3229.39 352.813 3248.27 363.185 3264.22 376.481L3219.55 434.721C3211.04 427.806 3199.87 421.424 3186.04 415.573C3172.74 409.191 3157.58 406 3140.56 406C3122.48 406 3105.99 410.521 3091.1 419.562C3076.74 428.604 3065.04 441.103 3056 457.059C3047.49 472.483 3043.23 490.301 3043.23 510.511C3043.23 529.659 3047.75 547.21 3056.8 563.166C3065.84 579.122 3078.34 591.887 3094.29 601.46C3110.25 610.502 3128.6 615.023 3149.34 615.023C3162.64 615.023 3174.87 613.161 3186.04 609.438C3197.74 605.183 3207.85 599.599 3216.35 592.685L3261.03 648.53ZM3486.68 688.42C3454.77 688.42 3425.79 681.772 3399.72 668.475C3374.19 655.179 3353.98 635.5 3339.09 609.438C3324.2 582.845 3316.75 550.135 3316.75 511.309C3316.75 473.015 3324.46 440.305 3339.89 413.18C3355.84 385.523 3376.59 364.248 3402.12 349.356C3428.18 334.464 3456.37 327.018 3486.68 327.018C3519.13 327.018 3545.19 333.4 3564.87 346.165C3585.08 358.93 3600.77 374.088 3611.94 391.64L3607.15 404.404L3615.93 342.176H3698.1V679.645H3608.75V597.471L3617.52 619.012C3615.4 622.203 3611.14 627.522 3604.76 634.968C3598.38 641.882 3589.6 649.594 3578.43 658.104C3567.26 666.614 3553.96 673.794 3538.54 679.645C3523.65 685.495 3506.36 688.42 3486.68 688.42ZM3511.42 615.023C3527.37 615.023 3541.73 612.098 3554.5 606.247C3567.79 600.397 3578.96 592.153 3588 581.515C3597.58 570.878 3604.49 558.113 3608.75 543.221V469.824C3604.49 455.995 3597.58 444.028 3588 433.923C3578.43 423.285 3566.73 415.042 3552.9 409.191C3539.6 403.341 3524.71 400.415 3508.22 400.415C3490.14 400.415 3473.39 404.936 3457.96 413.978C3442.54 423.02 3430.04 435.518 3420.47 451.474C3411.42 467.43 3406.9 485.78 3406.9 506.522C3406.9 526.733 3411.69 545.083 3421.26 561.57C3430.84 578.058 3443.6 591.089 3459.56 600.663C3475.51 610.236 3492.8 615.023 3511.42 615.023ZM3813.51 57.3622H3902.86V679.645H3813.51V57.3622ZM4017.44 57.3622H4106.8V679.645H4017.44V57.3622Z" fill="#3289FF"/>
</svg>
