  <svg
      width="30"
      height="28"
      viewBox="0 0 30 28"
      fill="none"
      xmlns="http://www.w3.org/2000/svg"
    >
      <path
        d="M23.7 7.79995C24.8 9.59995 25.5 11.7 25.5 14C25.5 20.4 20.3 25.7 13.8 25.7C7.4 25.7 2.1 20.5 2.1 14C2.1 7.49995 7.3 2.29995 13.8 2.29995C16.2 2.29995 18.4 2.99995 20.2 4.19995C20.7 3.79995 21.3 3.29995 21.9 2.89995C19.6 1.19995 16.8 0.199951 13.8 0.199951C6.2 0.199951 0 6.39995 0 13.9C0 21.5 6.2 27.7 13.8 27.7C21.4 27.7 27.6 21.5 27.6 13.9C27.6 11 26.7 8.39995 25.2 6.09995C24.6 6.69995 24.1 7.19995 23.7 7.79995Z"
        fill="#333333"
      />
      <path
        d="M12.8 19.5C12 17.9 9.79998 13.7 6.59998 9.10005C6.39998 8.80005 6.69998 8.50005 6.99998 8.70005C9.09998 10.1 11.8 12.4 12.7 13.1C12.9 13.2 13.1 13.2 13.3 13C14.6 11.3 21.3 3.50005 29.2 4.58453e-05C29.5 -0.0999542 29.7 0.300046 29.5 0.400046C21.7 6.10005 15.2 16.7 13.6 19.4C13.4 19.8 13 19.8 12.8 19.5Z"
        fill="#66CCCC"
      />
    </svg>